<svg width="216" height="57" viewBox="0 0 216 57" fill="none" xmlns="http://www.w3.org/2000/svg">
<rect x="14.5088" y="8" width="27.4909" height="12.2182" rx="6.10909" fill="#FFF500"/>
<rect y="50" width="27.4909" height="12.2182" rx="6.10909" transform="rotate(-90 0 50)" fill="#6917C0"/>
<rect y="20.2182" width="12.2182" height="12.2182" rx="6.10909" transform="rotate(-90 0 20.2182)" fill="#6917C0"/>
<rect x="14.5088" y="22.5091" width="19.8545" height="12.2182" rx="6.10909" fill="black"/>
<path d="M64.182 15.59V42H59.85V15.59H64.182ZM85.4115 15.59V19.124H74.2015V26.914H82.9415V30.448H74.2015V42H69.8695V15.59H85.4115ZM97.8533 31.512C97.8533 29.3587 98.2839 27.4713 99.1453 25.85C100.032 24.2033 101.248 22.9367 102.793 22.05C104.339 21.1633 106.112 20.72 108.113 20.72C110.647 20.72 112.737 21.328 114.383 22.544C116.055 23.7347 117.183 25.4447 117.765 27.674H113.091C112.711 26.6353 112.103 25.8247 111.267 25.242C110.431 24.6593 109.38 24.368 108.113 24.368C106.34 24.368 104.921 25.0013 103.857 26.268C102.819 27.5093 102.299 29.2573 102.299 31.512C102.299 33.7667 102.819 35.5273 103.857 36.794C104.921 38.0607 106.34 38.694 108.113 38.694C110.621 38.694 112.281 37.592 113.091 35.388H117.765C117.157 37.516 116.017 39.2133 114.345 40.48C112.673 41.7213 110.596 42.342 108.113 42.342C106.112 42.342 104.339 41.8987 102.793 41.012C101.248 40.1 100.032 38.8333 99.1453 37.212C98.2839 35.5653 97.8533 33.6653 97.8533 31.512ZM131.164 42.342C129.188 42.342 127.402 41.8987 125.806 41.012C124.21 40.1 122.956 38.8333 122.044 37.212C121.132 35.5653 120.676 33.6653 120.676 31.512C120.676 29.384 121.145 27.4967 122.082 25.85C123.02 24.2033 124.299 22.9367 125.92 22.05C127.542 21.1633 129.353 20.72 131.354 20.72C133.356 20.72 135.167 21.1633 136.788 22.05C138.41 22.9367 139.689 24.2033 140.626 25.85C141.564 27.4967 142.032 29.384 142.032 31.512C142.032 33.64 141.551 35.5273 140.588 37.174C139.626 38.8207 138.308 40.1 136.636 41.012C134.99 41.8987 133.166 42.342 131.164 42.342ZM131.164 38.58C132.279 38.58 133.318 38.314 134.28 37.782C135.268 37.25 136.066 36.452 136.674 35.388C137.282 34.324 137.586 33.032 137.586 31.512C137.586 29.992 137.295 28.7127 136.712 27.674C136.13 26.61 135.357 25.812 134.394 25.28C133.432 24.748 132.393 24.482 131.278 24.482C130.164 24.482 129.125 24.748 128.162 25.28C127.225 25.812 126.478 26.61 125.92 27.674C125.363 28.7127 125.084 29.992 125.084 31.512C125.084 33.7667 125.654 35.5147 126.794 36.756C127.96 37.972 129.416 38.58 131.164 38.58ZM150.647 13.88V42H146.315V13.88H150.647ZM160.666 13.88V42H156.334V13.88H160.666ZM164.91 31.436C164.91 29.3333 165.341 27.4713 166.202 25.85C167.089 24.2287 168.279 22.9747 169.774 22.088C171.294 21.176 172.966 20.72 174.79 20.72C176.437 20.72 177.868 21.0493 179.084 21.708C180.325 22.3413 181.313 23.1393 182.048 24.102V21.062H186.418V42H182.048V38.884C181.313 39.872 180.313 40.6953 179.046 41.354C177.779 42.0127 176.335 42.342 174.714 42.342C172.915 42.342 171.269 41.886 169.774 40.974C168.279 40.0367 167.089 38.7447 166.202 37.098C165.341 35.426 164.91 33.5387 164.91 31.436ZM182.048 31.512C182.048 30.068 181.744 28.814 181.136 27.75C180.553 26.686 179.781 25.8753 178.818 25.318C177.855 24.7607 176.817 24.482 175.702 24.482C174.587 24.482 173.549 24.7607 172.586 25.318C171.623 25.85 170.838 26.648 170.23 27.712C169.647 28.7507 169.356 29.992 169.356 31.436C169.356 32.88 169.647 34.1467 170.23 35.236C170.838 36.3253 171.623 37.1613 172.586 37.744C173.574 38.3013 174.613 38.58 175.702 38.58C176.817 38.58 177.855 38.3013 178.818 37.744C179.781 37.1867 180.553 36.376 181.136 35.312C181.744 34.2227 182.048 32.956 182.048 31.512ZM196.44 24.178C197.174 23.1647 198.175 22.3413 199.442 21.708C200.734 21.0493 202.165 20.72 203.736 20.72C205.585 20.72 207.257 21.1633 208.752 22.05C210.246 22.9367 211.424 24.2033 212.286 25.85C213.147 27.4713 213.578 29.3333 213.578 31.436C213.578 33.5387 213.147 35.426 212.286 37.098C211.424 38.7447 210.234 40.0367 208.714 40.974C207.219 41.886 205.56 42.342 203.736 42.342C202.114 42.342 200.67 42.0253 199.404 41.392C198.162 40.7587 197.174 39.948 196.44 38.96V42H192.108V13.88H196.44V24.178ZM209.17 31.436C209.17 29.992 208.866 28.7507 208.258 27.712C207.675 26.648 206.89 25.85 205.902 25.318C204.939 24.7607 203.9 24.482 202.786 24.482C201.696 24.482 200.658 24.7607 199.67 25.318C198.707 25.8753 197.922 26.686 197.314 27.75C196.731 28.814 196.44 30.068 196.44 31.512C196.44 32.956 196.731 34.2227 197.314 35.312C197.922 36.376 198.707 37.1867 199.67 37.744C200.658 38.3013 201.696 38.58 202.786 38.58C203.9 38.58 204.939 38.3013 205.902 37.744C206.89 37.1613 207.675 36.3253 208.258 35.236C208.866 34.1467 209.17 32.88 209.17 31.436Z" fill="black"/>
</svg>
